<svg width="10" height="10" viewBox="0 0 10 10" fill="none" xmlns="http://www.w3.org/2000/svg">
<g filter="url(#filter0_i_1079_79)">
<path d="M6.48541 2.52545C6.75878 2.25209 7.2013 2.2521 7.47467 2.52545C7.74804 2.79882 7.74804 3.24134 7.47467 3.51471L6.66151 4.32733C6.36224 4.62641 6.2126 4.77595 6.19809 4.95988C6.19603 4.986 6.19603 5.01224 6.19808 5.03836C6.21253 5.22229 6.36211 5.37188 6.66129 5.67106L7.47467 6.48444C7.74804 6.7578 7.74804 7.2013 7.47467 7.47467C7.20132 7.74788 6.75874 7.74792 6.48541 7.47467L5.67203 6.66129C5.37286 6.36211 5.22327 6.21253 5.03933 6.19808C5.01321 6.19603 4.98698 6.19603 4.96086 6.19809C4.77693 6.2126 4.62739 6.36224 4.32831 6.66151L3.51569 7.47467C3.24232 7.74804 2.79882 7.74804 2.52545 7.47467C2.2521 7.2013 2.25209 6.7578 2.52545 6.48444L3.33852 5.67084C3.63742 5.37174 3.78687 5.22219 3.8013 5.03834C3.80335 5.01223 3.80335 4.986 3.80129 4.9599C3.78679 4.77605 3.63729 4.62655 3.3383 4.32755L2.52545 3.51471C2.25222 3.24138 2.25225 2.7988 2.52545 2.52545C2.79882 2.25208 3.24232 2.25208 3.51569 2.52545L4.32853 3.3383C4.62753 3.63729 4.77703 3.78679 4.96087 3.80129C4.98698 3.80335 5.01321 3.80335 5.03932 3.8013C5.22317 3.78687 5.37272 3.63742 5.67181 3.33852L6.48541 2.52545Z" fill="white"/>
</g>
<defs>
<filter id="filter0_i_1079_79" x="0" y="0" width="10" height="10" filterUnits="userSpaceOnUse" color-interpolation-filters="sRGB">
<feFlood flood-opacity="0" result="BackgroundImageFix"/>
<feBlend mode="normal" in="SourceGraphic" in2="BackgroundImageFix" result="shape"/>
<feColorMatrix in="SourceAlpha" type="matrix" values="0 0 0 0 0 0 0 0 0 0 0 0 0 0 0 0 0 0 127 0" result="hardAlpha"/>
<feOffset/>
<feGaussianBlur stdDeviation="1"/>
<feComposite in2="hardAlpha" operator="arithmetic" k2="-1" k3="1"/>
<feColorMatrix type="matrix" values="0 0 0 0 0.942 0 0 0 0 0.94 0 0 0 0 1 0 0 0 0.1 0"/>
<feBlend mode="hard-light" in2="shape" result="effect1_innerShadow_1079_79"/>
</filter>
</defs>
</svg>
